{
  "asset": { "version": "2.0", "generator": "Mine demo procedural assets" },
  "scene": 0,
  "scenes": [
    { "nodes": [0, 1, 2, 3, 4, 5, 8, 9, 10, 13, 14, 15, 18, 19, 20, 23, 24] }
  ],
  "nodes": [
    {
      "name": "body",
      "mesh": 0,
      "translation": [0, 0, 0],
      "scale": [1.1, 0.35, 1.5]
    },
    {
      "name": "nose",
      "mesh": 1,
      "translation": [0, 0, 0.8],
      "scale": [0.6, 0.2, 0.12]
    },
    {
      "name": "camera",
      "mesh": 2,
      "translation": [0, -0.4, 0.55],
      "scale": [0.3, 0.3, 0.3]
    },
    {
      "name": "arm",
      "mesh": 3,
      "translation": [-0.7, 0, -0.6],
      "scale": [1.4, 0.13, 0.15]
    },
    {
      "name": "motor",
      "mesh": 4,
      "translation": [-1.3, 0.15, -0.6],
      "scale": [0.22, 0.25, 0.22]
    },
    {
      "name": "rotor-1-1",
      "translation": [-1.3, 0.3, -0.6],
      "scale": [1, 1, 1],
      "children": [6, 7]
    },
    {
      "name": "blade",
      "mesh": 5,
      "translation": [0, 0, 0],
      "scale": [1.05, 0.035, 0.12]
    },
    {
      "name": "blade",
      "mesh": 6,
      "translation": [0, 0, 0],
      "scale": [0.12, 0.035, 1.05]
    },
    {
      "name": "arm",
      "mesh": 7,
      "translation": [-0.7, 0, 0.6],
      "scale": [1.4, 0.13, 0.15]
    },
    {
      "name": "motor",
      "mesh": 8,
      "translation": [-1.3, 0.15, 0.6],
      "scale": [0.22, 0.25, 0.22]
    },
    {
      "name": "rotor-11",
      "translation": [-1.3, 0.3, 0.6],
      "scale": [1, 1, 1],
      "children": [11, 12]
    },
    {
      "name": "blade",
      "mesh": 9,
      "translation": [0, 0, 0],
      "scale": [1.05, 0.035, 0.12]
    },
    {
      "name": "blade",
      "mesh": 10,
      "translation": [0, 0, 0],
      "scale": [0.12, 0.035, 1.05]
    },
    {
      "name": "arm",
      "mesh": 11,
      "translation": [0.7, 0, -0.6],
      "scale": [1.4, 0.13, 0.15]
    },
    {
      "name": "motor",
      "mesh": 12,
      "translation": [1.3, 0.15, -0.6],
      "scale": [0.22, 0.25, 0.22]
    },
    {
      "name": "rotor1-1",
      "translation": [1.3, 0.3, -0.6],
      "scale": [1, 1, 1],
      "children": [16, 17]
    },
    {
      "name": "blade",
      "mesh": 13,
      "translation": [0, 0, 0],
      "scale": [1.05, 0.035, 0.12]
    },
    {
      "name": "blade",
      "mesh": 14,
      "translation": [0, 0, 0],
      "scale": [0.12, 0.035, 1.05]
    },
    {
      "name": "arm",
      "mesh": 15,
      "translation": [0.7, 0, 0.6],
      "scale": [1.4, 0.13, 0.15]
    },
    {
      "name": "motor",
      "mesh": 16,
      "translation": [1.3, 0.15, 0.6],
      "scale": [0.22, 0.25, 0.22]
    },
    {
      "name": "rotor11",
      "translation": [1.3, 0.3, 0.6],
      "scale": [1, 1, 1],
      "children": [21, 22]
    },
    {
      "name": "blade",
      "mesh": 17,
      "translation": [0, 0, 0],
      "scale": [1.05, 0.035, 0.12]
    },
    {
      "name": "blade",
      "mesh": 18,
      "translation": [0, 0, 0],
      "scale": [0.12, 0.035, 1.05]
    },
    {
      "name": "landingLeg",
      "mesh": 19,
      "translation": [-0.45, -0.4, 0],
      "scale": [0.09, 0.65, 1.1]
    },
    {
      "name": "landingLeg",
      "mesh": 20,
      "translation": [0.45, -0.4, 0],
      "scale": [0.09, 0.65, 1.1]
    }
  ],
  "meshes": [
    {
      "primitives": [
        { "attributes": { "POSITION": 0, "NORMAL": 1 }, "material": 0 }
      ]
    },
    {
      "primitives": [
        { "attributes": { "POSITION": 2, "NORMAL": 3 }, "material": 2 }
      ]
    },
    {
      "primitives": [
        { "attributes": { "POSITION": 4, "NORMAL": 5 }, "material": 1 }
      ]
    },
    {
      "primitives": [
        { "attributes": { "POSITION": 6, "NORMAL": 7 }, "material": 1 }
      ]
    },
    {
      "primitives": [
        { "attributes": { "POSITION": 8, "NORMAL": 9 }, "material": 2 }
      ]
    },
    {
      "primitives": [
        { "attributes": { "POSITION": 10, "NORMAL": 11 }, "material": 1 }
      ]
    },
    {
      "primitives": [
        { "attributes": { "POSITION": 12, "NORMAL": 13 }, "material": 1 }
      ]
    },
    {
      "primitives": [
        { "attributes": { "POSITION": 14, "NORMAL": 15 }, "material": 1 }
      ]
    },
    {
      "primitives": [
        { "attributes": { "POSITION": 16, "NORMAL": 17 }, "material": 2 }
      ]
    },
    {
      "primitives": [
        { "attributes": { "POSITION": 18, "NORMAL": 19 }, "material": 1 }
      ]
    },
    {
      "primitives": [
        { "attributes": { "POSITION": 20, "NORMAL": 21 }, "material": 1 }
      ]
    },
    {
      "primitives": [
        { "attributes": { "POSITION": 22, "NORMAL": 23 }, "material": 1 }
      ]
    },
    {
      "primitives": [
        { "attributes": { "POSITION": 24, "NORMAL": 25 }, "material": 2 }
      ]
    },
    {
      "primitives": [
        { "attributes": { "POSITION": 26, "NORMAL": 27 }, "material": 1 }
      ]
    },
    {
      "primitives": [
        { "attributes": { "POSITION": 28, "NORMAL": 29 }, "material": 1 }
      ]
    },
    {
      "primitives": [
        { "attributes": { "POSITION": 30, "NORMAL": 31 }, "material": 1 }
      ]
    },
    {
      "primitives": [
        { "attributes": { "POSITION": 32, "NORMAL": 33 }, "material": 2 }
      ]
    },
    {
      "primitives": [
        { "attributes": { "POSITION": 34, "NORMAL": 35 }, "material": 1 }
      ]
    },
    {
      "primitives": [
        { "attributes": { "POSITION": 36, "NORMAL": 37 }, "material": 1 }
      ]
    },
    {
      "primitives": [
        { "attributes": { "POSITION": 38, "NORMAL": 39 }, "material": 1 }
      ]
    },
    {
      "primitives": [
        { "attributes": { "POSITION": 40, "NORMAL": 41 }, "material": 1 }
      ]
    }
  ],
  "materials": [
    {
      "pbrMetallicRoughness": {
        "baseColorFactor": [0.86, 0.9, 0.96, 1],
        "metallicFactor": 0.05,
        "roughnessFactor": 0.88
      },
      "doubleSided": true
    },
    {
      "pbrMetallicRoughness": {
        "baseColorFactor": [0.08, 0.12, 0.2, 1],
        "metallicFactor": 0.05,
        "roughnessFactor": 0.88
      },
      "doubleSided": true
    },
    {
      "pbrMetallicRoughness": {
        "baseColorFactor": [0.22, 0.52, 1, 1],
        "metallicFactor": 0.05,
        "roughnessFactor": 0.88
      },
      "doubleSided": true
    }
  ],
  "buffers": [
    {
      "uri": "data:application/octet-stream;base64,",
      "byteLength": 18144
    }
  ],
  "bufferViews": [
    { "buffer": 0, "byteOffset": 0, "byteLength": 432 },
    { "buffer": 0, "byteOffset": 432, "byteLength": 432 },
    { "buffer": 0, "byteOffset": 864, "byteLength": 432 },
    { "buffer": 0, "byteOffset": 1296, "byteLength": 432 },
    { "buffer": 0, "byteOffset": 1728, "byteLength": 432 },
    { "buffer": 0, "byteOffset": 2160, "byteLength": 432 },
    { "buffer": 0, "byteOffset": 2592, "byteLength": 432 },
    { "buffer": 0, "byteOffset": 3024, "byteLength": 432 },
    { "buffer": 0, "byteOffset": 3456, "byteLength": 432 },
    { "buffer": 0, "byteOffset": 3888, "byteLength": 432 },
    { "buffer": 0, "byteOffset": 4320, "byteLength": 432 },
    { "buffer": 0, "byteOffset": 4752, "byteLength": 432 },
    { "buffer": 0, "byteOffset": 5184, "byteLength": 432 },
    { "buffer": 0, "byteOffset": 5616, "byteLength": 432 },
    { "buffer": 0, "byteOffset": 6048, "byteLength": 432 },
    { "buffer": 0, "byteOffset": 6480, "byteLength": 432 },
    { "buffer": 0, "byteOffset": 6912, "byteLength": 432 },
    { "buffer": 0, "byteOffset": 7344, "byteLength": 432 },
    { "buffer": 0, "byteOffset": 7776, "byteLength": 432 },
    { "buffer": 0, "byteOffset": 8208, "byteLength": 432 },
    { "buffer": 0, "byteOffset": 8640, "byteLength": 432 },
    { "buffer": 0, "byteOffset": 9072, "byteLength": 432 },
    { "buffer": 0, "byteOffset": 9504, "byteLength": 432 },
    { "buffer": 0, "byteOffset": 9936, "byteLength": 432 },
    { "buffer": 0, "byteOffset": 10368, "byteLength": 432 },
    { "buffer": 0, "byteOffset": 10800, "byteLength": 432 },
    { "buffer": 0, "byteOffset": 11232, "byteLength": 432 },
    { "buffer": 0, "byteOffset": 11664, "byteLength": 432 },
    { "buffer": 0, "byteOffset": 12096, "byteLength": 432 },
    { "buffer": 0, "byteOffset": 12528, "byteLength": 432 },
    { "buffer": 0, "byteOffset": 12960, "byteLength": 432 },
    { "buffer": 0, "byteOffset": 13392, "byteLength": 432 },
    { "buffer": 0, "byteOffset": 13824, "byteLength": 432 },
    { "buffer": 0, "byteOffset": 14256, "byteLength": 432 },
    { "buffer": 0, "byteOffset": 14688, "byteLength": 432 },
    { "buffer": 0, "byteOffset": 15120, "byteLength": 432 },
    { "buffer": 0, "byteOffset": 15552, "byteLength": 432 },
    { "buffer": 0, "byteOffset": 15984, "byteLength": 432 },
    { "buffer": 0, "byteOffset": 16416, "byteLength": 432 },
    { "buffer": 0, "byteOffset": 16848, "byteLength": 432 },
    { "buffer": 0, "byteOffset": 17280, "byteLength": 432 },
    { "buffer": 0, "byteOffset": 17712, "byteLength": 432 }
  ],
  "accessors": [
    {
      "bufferView": 0,
      "componentType": 5126,
      "count": 36,
      "type": "VEC3",
      "min": [-0.5, -0.5, -0.5],
      "max": [0.5, 0.5, 0.5]
    },
    {
      "bufferView": 1,
      "componentType": 5126,
      "count": 36,
      "type": "VEC3",
      "min": [-1, -1, -1],
      "max": [1, 1, 1]
    },
    {
      "bufferView": 2,
      "componentType": 5126,
      "count": 36,
      "type": "VEC3",
      "min": [-0.5, -0.5, -0.5],
      "max": [0.5, 0.5, 0.5]
    },
    {
      "bufferView": 3,
      "componentType": 5126,
      "count": 36,
      "type": "VEC3",
      "min": [-1, -1, -1],
      "max": [1, 1, 1]
    },
    {
      "bufferView": 4,
      "componentType": 5126,
      "count": 36,
      "type": "VEC3",
      "min": [-0.5, -0.5, -0.5],
      "max": [0.5, 0.5, 0.5]
    },
    {
      "bufferView": 5,
      "componentType": 5126,
      "count": 36,
      "type": "VEC3",
      "min": [-1, -1, -1],
      "max": [1, 1, 1]
    },
    {
      "bufferView": 6,
      "componentType": 5126,
      "count": 36,
      "type": "VEC3",
      "min": [-0.5, -0.5, -0.5],
      "max": [0.5, 0.5, 0.5]
    },
    {
      "bufferView": 7,
      "componentType": 5126,
      "count": 36,
      "type": "VEC3",
      "min": [-1, -1, -1],
      "max": [1, 1, 1]
    },
    {
      "bufferView": 8,
      "componentType": 5126,
      "count": 36,
      "type": "VEC3",
      "min": [-0.5, -0.5, -0.5],
      "max": [0.5, 0.5, 0.5]
    },
    {
      "bufferView": 9,
      "componentType": 5126,
      "count": 36,
      "type": "VEC3",
      "min": [-1, -1, -1],
      "max": [1, 1, 1]
    },
    {
      "bufferView": 10,
      "componentType": 5126,
      "count": 36,
      "type": "VEC3",
      "min": [-0.5, -0.5, -0.5],
      "max": [0.5, 0.5, 0.5]
    },
    {
      "bufferView": 11,
      "componentType": 5126,
      "count": 36,
      "type": "VEC3",
      "min": [-1, -1, -1],
      "max": [1, 1, 1]
    },
    {
      "bufferView": 12,
      "componentType": 5126,
      "count": 36,
      "type": "VEC3",
      "min": [-0.5, -0.5, -0.5],
      "max": [0.5, 0.5, 0.5]
    },
    {
      "bufferView": 13,
      "componentType": 5126,
      "count": 36,
      "type": "VEC3",
      "min": [-1, -1, -1],
      "max": [1, 1, 1]
    },
    {
      "bufferView": 14,
      "componentType": 5126,
      "count": 36,
      "type": "VEC3",
      "min": [-0.5, -0.5, -0.5],
      "max": [0.5, 0.5, 0.5]
    },
    {
      "bufferView": 15,
      "componentType": 5126,
      "count": 36,
      "type": "VEC3",
      "min": [-1, -1, -1],
      "max": [1, 1, 1]
    },
    {
      "bufferView": 16,
      "componentType": 5126,
      "count": 36,
      "type": "VEC3",
      "min": [-0.5, -0.5, -0.5],
      "max": [0.5, 0.5, 0.5]
    },
    {
      "bufferView": 17,
      "componentType": 5126,
      "count": 36,
      "type": "VEC3",
      "min": [-1, -1, -1],
      "max": [1, 1, 1]
    },
    {
      "bufferView": 18,
      "componentType": 5126,
      "count": 36,
      "type": "VEC3",
      "min": [-0.5, -0.5, -0.5],
      "max": [0.5, 0.5, 0.5]
    },
    {
      "bufferView": 19,
      "componentType": 5126,
      "count": 36,
      "type": "VEC3",
      "min": [-1, -1, -1],
      "max": [1, 1, 1]
    },
    {
      "bufferView": 20,
      "componentType": 5126,
      "count": 36,
      "type": "VEC3",
      "min": [-0.5, -0.5, -0.5],
      "max": [0.5, 0.5, 0.5]
    },
    {
      "bufferView": 21,
      "componentType": 5126,
      "count": 36,
      "type": "VEC3",
      "min": [-1, -1, -1],
      "max": [1, 1, 1]
    },
    {
      "bufferView": 22,
      "componentType": 5126,
      "count": 36,
      "type": "VEC3",
      "min": [-0.5, -0.5, -0.5],
      "max": [0.5, 0.5, 0.5]
    },
    {
      "bufferView": 23,
      "componentType": 5126,
      "count": 36,
      "type": "VEC3",
      "min": [-1, -1, -1],
      "max": [1, 1, 1]
    },
    {
      "bufferView": 24,
      "componentType": 5126,
      "count": 36,
      "type": "VEC3",
      "min": [-0.5, -0.5, -0.5],
      "max": [0.5, 0.5, 0.5]
    },
    {
      "bufferView": 25,
      "componentType": 5126,
      "count": 36,
      "type": "VEC3",
      "min": [-1, -1, -1],
      "max": [1, 1, 1]
    },
    {
      "bufferView": 26,
      "componentType": 5126,
      "count": 36,
      "type": "VEC3",
      "min": [-0.5, -0.5, -0.5],
      "max": [0.5, 0.5, 0.5]
    },
    {
      "bufferView": 27,
      "componentType": 5126,
      "count": 36,
      "type": "VEC3",
      "min": [-1, -1, -1],
      "max": [1, 1, 1]
    },
    {
      "bufferView": 28,
      "componentType": 5126,
      "count": 36,
      "type": "VEC3",
      "min": [-0.5, -0.5, -0.5],
      "max": [0.5, 0.5, 0.5]
    },
    {
      "bufferView": 29,
      "componentType": 5126,
      "count": 36,
      "type": "VEC3",
      "min": [-1, -1, -1],
      "max": [1, 1, 1]
    },
    {
      "bufferView": 30,
      "componentType": 5126,
      "count": 36,
      "type": "VEC3",
      "min": [-0.5, -0.5, -0.5],
      "max": [0.5, 0.5, 0.5]
    },
    {
      "bufferView": 31,
      "componentType": 5126,
      "count": 36,
      "type": "VEC3",
      "min": [-1, -1, -1],
      "max": [1, 1, 1]
    },
    {
      "bufferView": 32,
      "componentType": 5126,
      "count": 36,
      "type": "VEC3",
      "min": [-0.5, -0.5, -0.5],
      "max": [0.5, 0.5, 0.5]
    },
    {
      "bufferView": 33,
      "componentType": 5126,
      "count": 36,
      "type": "VEC3",
      "min": [-1, -1, -1],
      "max": [1, 1, 1]
    },
    {
      "bufferView": 34,
      "componentType": 5126,
      "count": 36,
      "type": "VEC3",
      "min": [-0.5, -0.5, -0.5],
      "max": [0.5, 0.5, 0.5]
    },
    {
      "bufferView": 35,
      "componentType": 5126,
      "count": 36,
      "type": "VEC3",
      "min": [-1, -1, -1],
      "max": [1, 1, 1]
    },
    {
      "bufferView": 36,
      "componentType": 5126,
      "count": 36,
      "type": "VEC3",
      "min": [-0.5, -0.5, -0.5],
      "max": [0.5, 0.5, 0.5]
    },
    {
      "bufferView": 37,
      "componentType": 5126,
      "count": 36,
      "type": "VEC3",
      "min": [-1, -1, -1],
      "max": [1, 1, 1]
    },
    {
      "bufferView": 38,
      "componentType": 5126,
      "count": 36,
      "type": "VEC3",
      "min": [-0.5, -0.5, -0.5],
      "max": [0.5, 0.5, 0.5]
    },
    {
      "bufferView": 39,
      "componentType": 5126,
      "count": 36,
      "type": "VEC3",
      "min": [-1, -1, -1],
      "max": [1, 1, 1]
    },
    {
      "bufferView": 40,
      "componentType": 5126,
      "count": 36,
      "type": "VEC3",
      "min": [-0.5, -0.5, -0.5],
      "max": [0.5, 0.5, 0.5]
    },
    {
      "bufferView": 41,
      "componentType": 5126,
      "count": 36,
      "type": "VEC3",
      "min": [-1, -1, -1],
      "max": [1, 1, 1]
    }
  ]
}
