{"asset":{"version":"2.0","generator":"Mine demo procedural assets"},"scene":0,"scenes":[{"nodes":[0,1,2,3,4,5,6,7,8,9,10,11,15,19,23]}],"nodes":[{"name":"chassis","mesh":0,"translation":[0,1.3,0],"scale":[3.9,0.65,7.8]},{"name":"cab","mesh":1,"translation":[0,2.65,2.5],"scale":[3.5,2.3,2.5]},{"name":"windscreen","mesh":2,"translation":[0,2.95,3.77],"scale":[2.9,1.1,0.07]},{"name":"roof","mesh":3,"translation":[0,3.95,2.5],"scale":[3.9,0.24,2.9]},{"name":"bed","mesh":4,"translation":[0,2.25,-1.7],"scale":[4.4,0.4,5.1]},{"name":"side","mesh":5,"translation":[-2,3.15,-1.7],"scale":[0.35,1.8,5.1]},{"name":"side","mesh":6,"translation":[2,3.15,-1.7],"scale":[0.35,1.8,5.1]},{"name":"tail","mesh":7,"translation":[0,3.1,-4.1],"scale":[4.3,1.6,0.3]},{"name":"ore","mesh":8,"translation":[0,2.8,-1.7],"scale":[3.5,0.75,4.3]},{"name":"light","mesh":9,"translation":[-1.4,1.8,3.8],"scale":[0.5,0.35,0.15]},{"name":"light","mesh":10,"translation":[1.4,1.8,3.8],"scale":[0.5,0.35,0.15]},{"name":"steer-2.05-2.65","translation":[-2.05,1,-2.65],"scale":[1,1,1],"children":[12]},{"name":"wheel-2.05-2.65","mesh":11,"translation":[0,0,0],"scale":[0.65,1,1],"children":[13,14]},{"name":"spoke","mesh":12,"translation":[-0.52,0,0],"scale":[0.06,1.25,0.14]},{"name":"spoke2","mesh":13,"translation":[-0.52,0,0],"scale":[0.06,0.14,1.25]},{"name":"steer-2.052.55","translation":[-2.05,1,2.55],"scale":[1,1,1],"children":[16]},{"name":"wheel-2.052.55","mesh":14,"translation":[0,0,0],"scale":[0.65,1,1],"children":[17,18]},{"name":"spoke","mesh":15,"translation":[-0.52,0,0],"scale":[0.06,1.25,0.14]},{"name":"spoke2","mesh":16,"translation":[-0.52,0,0],"scale":[0.06,0.14,1.25]},{"name":"steer2.05-2.65","translation":[2.05,1,-2.65],"scale":[1,1,1],"children":[20]},{"name":"wheel2.05-2.65","mesh":17,"translation":[0,0,0],"scale":[0.65,1,1],"children":[21,22]},{"name":"spoke","mesh":18,"translation":[0.52,0,0],"scale":[0.06,1.25,0.14]},{"name":"spoke2","mesh":19,"translation":[0.52,0,0],"scale":[0.06,0.14,1.25]},{"name":"steer2.052.55","translation":[2.05,1,2.55],"scale":[1,1,1],"children":[24]},{"name":"wheel2.052.55","mesh":20,"translation":[0,0,0],"scale":[0.65,1,1],"children":[25,26]},{"name":"spoke","mesh":21,"translation":[0.52,0,0],"scale":[0.06,1.25,0.14]},{"name":"spoke2","mesh":22,"translation":[0.52,0,0],"scale":[0.06,0.14,1.25]}],"meshes":[{"primitives":[{"attributes":{"POSITION":0,"NORMAL":1},"material":1}]},{"primitives":[{"attributes":{"POSITION":2,"NORMAL":3},"material":0}]},{"primitives":[{"attributes":{"POSITION":4,"NORMAL":5},"material":2}]},{"primitives":[{"attributes":{"POSITION":6,"NORMAL":7},"material":0}]},{"primitives":[{"attributes":{"POSITION":8,"NORMAL":9},"material":0}]},{"primitives":[{"attributes":{"POSITION":10,"NORMAL":11},"material":0}]},{"primitives":[{"attributes":{"POSITION":12,"NORMAL":13},"material":0}]},{"primitives":[{"attributes":{"POSITION":14,"NORMAL":15},"material":0}]},{"primitives":[{"attributes":{"POSITION":16,"NORMAL":17},"material":3}]},{"primitives":[{"attributes":{"POSITION":18,"NORMAL":19},"material":4}]},{"primitives":[{"attributes":{"POSITION":20,"NORMAL":21},"material":4}]},{"primitives":[{"attributes":{"POSITION":22,"NORMAL":23},"material":1}]},{"primitives":[{"attributes":{"POSITION":24,"NORMAL":25},"material":5}]},{"primitives":[{"attributes":{"POSITION":26,"NORMAL":27},"material":5}]},{"primitives":[{"attributes":{"POSITION":28,"NORMAL":29},"material":1}]},{"primitives":[{"attributes":{"POSITION":30,"NORMAL":31},"material":6}]},{"primitives":[{"attributes":{"POSITION":32,"NORMAL":33},"material":6}]},{"primitives":[{"attributes":{"POSITION":34,"NORMAL":35},"material":1}]},{"primitives":[{"attributes":{"POSITION":36,"NORMAL":37},"material":7}]},{"primitives":[{"attributes":{"POSITION":38,"NORMAL":39},"material":7}]},{"primitives":[{"attributes":{"POSITION":40,"NORMAL":41},"material":1}]},{"primitives":[{"attributes":{"POSITION":42,"NORMAL":43},"material":8}]},{"primitives":[{"attributes":{"POSITION":44,"NORMAL":45},"material":8}]}],"materials":[{"pbrMetallicRoughness":{"baseColorFactor":[0.94,0.58,0.12,1],"metallicFactor":0.05,"roughnessFactor":0.88},"doubleSided":true},{"pbrMetallicRoughness":{"baseColorFactor":[0.08,0.1,0.12,1],"metallicFactor":0.05,"roughnessFactor":0.88},"doubleSided":true},{"pbrMetallicRoughness":{"baseColorFactor":[0.17,0.31,0.36,1],"metallicFactor":0.05,"roughnessFactor":0.88},"doubleSided":true},{"pbrMetallicRoughness":{"baseColorFactor":[0.48,0.5,0.48,1],"metallicFactor":0.05,"roughnessFactor":0.88},"doubleSided":true},{"pbrMetallicRoughness":{"baseColorFactor":[0.85,0.91,0.87,1],"metallicFactor":0.05,"roughnessFactor":0.88},"doubleSided":true},{"pbrMetallicRoughness":{"baseColorFactor":[0.62,0.65,0.59,1],"metallicFactor":0.05,"roughnessFactor":0.88},"doubleSided":true},{"pbrMetallicRoughness":{"baseColorFactor":[0.62,0.65,0.59,1],"metallicFactor":0.05,"roughnessFactor":0.88},"doubleSided":true},{"pbrMetallicRoughness":{"baseColorFactor":[0.62,0.65,0.59,1],"metallicFactor":0.05,"roughnessFactor":0.88},"doubleSided":true},{"pbrMetallicRoughness":{"baseColorFactor":[0.62,0.65,0.59,1],"metallicFactor":0.05,"roughnessFactor":0.88},"doubleSided":true}],"buffers":[{"uri":"data:application/octet-stream;base64,","byteLength":39456}],"bufferViews":[{"buffer":0,"byteOffset":0,"byteLength":432},{"buffer":0,"byteOffset":432,"byteLength":432},{"buffer":0,"byteOffset":864,"byteLength":432},{"buffer":0,"byteOffset":1296,"byteLength":432},{"buffer":0,"byteOffset":1728,"byteLength":432},{"buffer":0,"byteOffset":2160,"byteLength":432},{"buffer":0,"byteOffset":2592,"byteLength":432},{"buffer":0,"byteOffset":3024,"byteLength":432},{"buffer":0,"byteOffset":3456,"byteLength":432},{"buffer":0,"byteOffset":3888,"byteLength":432},{"buffer":0,"byteOffset":4320,"byteLength":432},{"buffer":0,"byteOffset":4752,"byteLength":432},{"buffer":0,"byteOffset":5184,"byteLength":432},{"buffer":0,"byteOffset":5616,"byteLength":432},{"buffer":0,"byteOffset":6048,"byteLength":432},{"buffer":0,"byteOffset":6480,"byteLength":432},{"buffer":0,"byteOffset":6912,"byteLength":432},{"buffer":0,"byteOffset":7344,"byteLength":432},{"buffer":0,"byteOffset":7776,"byteLength":432},{"buffer":0,"byteOffset":8208,"byteLength":432},{"buffer":0,"byteOffset":8640,"byteLength":432},{"buffer":0,"byteOffset":9072,"byteLength":432},{"buffer":0,"byteOffset":9504,"byteLength":2880},{"buffer":0,"byteOffset":12384,"byteLength":2880},{"buffer":0,"byteOffset":15264,"byteLength":432},{"buffer":0,"byteOffset":15696,"byteLength":432},{"buffer":0,"byteOffset":16128,"byteLength":432},{"buffer":0,"byteOffset":16560,"byteLength":432},{"buffer":0,"byteOffset":16992,"byteLength":2880},{"buffer":0,"byteOffset":19872,"byteLength":2880},{"buffer":0,"byteOffset":22752,"byteLength":432},{"buffer":0,"byteOffset":23184,"byteLength":432},{"buffer":0,"byteOffset":23616,"byteLength":432},{"buffer":0,"byteOffset":24048,"byteLength":432},{"buffer":0,"byteOffset":24480,"byteLength":2880},{"buffer":0,"byteOffset":27360,"byteLength":2880},{"buffer":0,"byteOffset":30240,"byteLength":432},{"buffer":0,"byteOffset":30672,"byteLength":432},{"buffer":0,"byteOffset":31104,"byteLength":432},{"buffer":0,"byteOffset":31536,"byteLength":432},{"buffer":0,"byteOffset":31968,"byteLength":2880},{"buffer":0,"byteOffset":34848,"byteLength":2880},{"buffer":0,"byteOffset":37728,"byteLength":432},{"buffer":0,"byteOffset":38160,"byteLength":432},{"buffer":0,"byteOffset":38592,"byteLength":432},{"buffer":0,"byteOffset":39024,"byteLength":432}],"accessors":[{"bufferView":0,"componentType":5126,"count":36,"type":"VEC3","min":[-0.5,-0.5,-0.5],"max":[0.5,0.5,0.5]},{"bufferView":1,"componentType":5126,"count":36,"type":"VEC3","min":[-1,-1,-1],"max":[1,1,1]},{"bufferView":2,"componentType":5126,"count":36,"type":"VEC3","min":[-0.5,-0.5,-0.5],"max":[0.5,0.5,0.5]},{"bufferView":3,"componentType":5126,"count":36,"type":"VEC3","min":[-1,-1,-1],"max":[1,1,1]},{"bufferView":4,"componentType":5126,"count":36,"type":"VEC3","min":[-0.5,-0.5,-0.5],"max":[0.5,0.5,0.5]},{"bufferView":5,"componentType":5126,"count":36,"type":"VEC3","min":[-1,-1,-1],"max":[1,1,1]},{"bufferView":6,"componentType":5126,"count":36,"type":"VEC3","min":[-0.5,-0.5,-0.5],"max":[0.5,0.5,0.5]},{"bufferView":7,"componentType":5126,"count":36,"type":"VEC3","min":[-1,-1,-1],"max":[1,1,1]},{"bufferView":8,"componentType":5126,"count":36,"type":"VEC3","min":[-0.5,-0.5,-0.5],"max":[0.5,0.5,0.5]},{"bufferView":9,"componentType":5126,"count":36,"type":"VEC3","min":[-1,-1,-1],"max":[1,1,1]},{"bufferView":10,"componentType":5126,"count":36,"type":"VEC3","min":[-0.5,-0.5,-0.5],"max":[0.5,0.5,0.5]},{"bufferView":11,"componentType":5126,"count":36,"type":"VEC3","min":[-1,-1,-1],"max":[1,1,1]},{"bufferView":12,"componentType":5126,"count":36,"type":"VEC3","min":[-0.5,-0.5,-0.5],"max":[0.5,0.5,0.5]},{"bufferView":13,"componentType":5126,"count":36,"type":"VEC3","min":[-1,-1,-1],"max":[1,1,1]},{"bufferView":14,"componentType":5126,"count":36,"type":"VEC3","min":[-0.5,-0.5,-0.5],"max":[0.5,0.5,0.5]},{"bufferView":15,"componentType":5126,"count":36,"type":"VEC3","min":[-1,-1,-1],"max":[1,1,1]},{"bufferView":16,"componentType":5126,"count":36,"type":"VEC3","min":[-0.5,-0.5,-0.5],"max":[0.5,0.5,0.5]},{"bufferView":17,"componentType":5126,"count":36,"type":"VEC3","min":[-1,-1,-1],"max":[1,1,1]},{"bufferView":18,"componentType":5126,"count":36,"type":"VEC3","min":[-0.5,-0.5,-0.5],"max":[0.5,0.5,0.5]},{"bufferView":19,"componentType":5126,"count":36,"type":"VEC3","min":[-1,-1,-1],"max":[1,1,1]},{"bufferView":20,"componentType":5126,"count":36,"type":"VEC3","min":[-0.5,-0.5,-0.5],"max":[0.5,0.5,0.5]},{"bufferView":21,"componentType":5126,"count":36,"type":"VEC3","min":[-1,-1,-1],"max":[1,1,1]},{"bufferView":22,"componentType":5126,"count":240,"type":"VEC3","min":[-0.5,-1,-1],"max":[0.5,1,1]},{"bufferView":23,"componentType":5126,"count":240,"type":"VEC3","min":[-1,-0.9876883405951377,-0.9876883405951378],"max":[1,0.9876883405951378,0.9876883405951378]},{"bufferView":24,"componentType":5126,"count":36,"type":"VEC3","min":[-0.5,-0.5,-0.5],"max":[0.5,0.5,0.5]},{"bufferView":25,"componentType":5126,"count":36,"type":"VEC3","min":[-1,-1,-1],"max":[1,1,1]},{"bufferView":26,"componentType":5126,"count":36,"type":"VEC3","min":[-0.5,-0.5,-0.5],"max":[0.5,0.5,0.5]},{"bufferView":27,"componentType":5126,"count":36,"type":"VEC3","min":[-1,-1,-1],"max":[1,1,1]},{"bufferView":28,"componentType":5126,"count":240,"type":"VEC3","min":[-0.5,-1,-1],"max":[0.5,1,1]},{"bufferView":29,"componentType":5126,"count":240,"type":"VEC3","min":[-1,-0.9876883405951377,-0.9876883405951378],"max":[1,0.9876883405951378,0.9876883405951378]},{"bufferView":30,"componentType":5126,"count":36,"type":"VEC3","min":[-0.5,-0.5,-0.5],"max":[0.5,0.5,0.5]},{"bufferView":31,"componentType":5126,"count":36,"type":"VEC3","min":[-1,-1,-1],"max":[1,1,1]},{"bufferView":32,"componentType":5126,"count":36,"type":"VEC3","min":[-0.5,-0.5,-0.5],"max":[0.5,0.5,0.5]},{"bufferView":33,"componentType":5126,"count":36,"type":"VEC3","min":[-1,-1,-1],"max":[1,1,1]},{"bufferView":34,"componentType":5126,"count":240,"type":"VEC3","min":[-0.5,-1,-1],"max":[0.5,1,1]},{"bufferView":35,"componentType":5126,"count":240,"type":"VEC3","min":[-1,-0.9876883405951377,-0.9876883405951378],"max":[1,0.9876883405951378,0.9876883405951378]},{"bufferView":36,"componentType":5126,"count":36,"type":"VEC3","min":[-0.5,-0.5,-0.5],"max":[0.5,0.5,0.5]},{"bufferView":37,"componentType":5126,"count":36,"type":"VEC3","min":[-1,-1,-1],"max":[1,1,1]},{"bufferView":38,"componentType":5126,"count":36,"type":"VEC3","min":[-0.5,-0.5,-0.5],"max":[0.5,0.5,0.5]},{"bufferView":39,"componentType":5126,"count":36,"type":"VEC3","min":[-1,-1,-1],"max":[1,1,1]},{"bufferView":40,"componentType":5126,"count":240,"type":"VEC3","min":[-0.5,-1,-1],"max":[0.5,1,1]},{"bufferView":41,"componentType":5126,"count":240,"type":"VEC3","min":[-1,-0.9876883405951377,-0.9876883405951378],"max":[1,0.9876883405951378,0.9876883405951378]},{"bufferView":42,"componentType":5126,"count":36,"type":"VEC3","min":[-0.5,-0.5,-0.5],"max":[0.5,0.5,0.5]},{"bufferView":43,"componentType":5126,"count":36,"type":"VEC3","min":[-1,-1,-1],"max":[1,1,1]},{"bufferView":44,"componentType":5126,"count":36,"type":"VEC3","min":[-0.5,-0.5,-0.5],"max":[0.5,0.5,0.5]},{"bufferView":45,"componentType":5126,"count":36,"type":"VEC3","min":[-1,-1,-1],"max":[1,1,1]}]}