{"asset":{"version":"2.0","generator":"Mine demo procedural assets"},"scene":0,"scenes":[{"nodes":[0,1,2,3,4,7,10,13]}],"nodes":[{"name":"torso","mesh":0,"translation":[0,1.25,0],"scale":[0.55,0.65,0.3]},{"name":"stripe","mesh":1,"translation":[0,1.28,0.158],"scale":[0.56,0.09,0.02]},{"name":"head","mesh":2,"translation":[0,1.78,0],"scale":[0.31,0.34,0.3]},{"name":"helmet","mesh":3,"translation":[0,1.98,0],"scale":[0.43,0.16,0.41]},{"name":"leg-1","translation":[-0.17,0.98,0],"scale":[1,1,1],"children":[5,6]},{"name":"trouser","mesh":4,"translation":[0,-0.36,0],"scale":[0.23,0.7,0.24]},{"name":"boot","mesh":5,"translation":[0,-0.76,0.08],"scale":[0.27,0.18,0.4]},{"name":"arm-1","translation":[-0.39,1.52,0],"scale":[1,1,1],"children":[8,9]},{"name":"sleeve","mesh":6,"translation":[0,-0.28,0],"scale":[0.19,0.57,0.22]},{"name":"hand","mesh":7,"translation":[0,-0.61,0],"scale":[0.17,0.17,0.18]},{"name":"leg1","translation":[0.17,0.98,0],"scale":[1,1,1],"children":[11,12]},{"name":"trouser","mesh":8,"translation":[0,-0.36,0],"scale":[0.23,0.7,0.24]},{"name":"boot","mesh":9,"translation":[0,-0.76,0.08],"scale":[0.27,0.18,0.4]},{"name":"arm1","translation":[0.39,1.52,0],"scale":[1,1,1],"children":[14,15]},{"name":"sleeve","mesh":10,"translation":[0,-0.28,0],"scale":[0.19,0.57,0.22]},{"name":"hand","mesh":11,"translation":[0,-0.61,0],"scale":[0.17,0.17,0.18]}],"meshes":[{"primitives":[{"attributes":{"POSITION":0,"NORMAL":1},"material":0}]},{"primitives":[{"attributes":{"POSITION":2,"NORMAL":3},"material":4}]},{"primitives":[{"attributes":{"POSITION":4,"NORMAL":5},"material":2}]},{"primitives":[{"attributes":{"POSITION":6,"NORMAL":7},"material":3}]},{"primitives":[{"attributes":{"POSITION":8,"NORMAL":9},"material":1}]},{"primitives":[{"attributes":{"POSITION":10,"NORMAL":11},"material":1}]},{"primitives":[{"attributes":{"POSITION":12,"NORMAL":13},"material":0}]},{"primitives":[{"attributes":{"POSITION":14,"NORMAL":15},"material":2}]},{"primitives":[{"attributes":{"POSITION":16,"NORMAL":17},"material":1}]},{"primitives":[{"attributes":{"POSITION":18,"NORMAL":19},"material":1}]},{"primitives":[{"attributes":{"POSITION":20,"NORMAL":21},"material":0}]},{"primitives":[{"attributes":{"POSITION":22,"NORMAL":23},"material":2}]}],"materials":[{"pbrMetallicRoughness":{"baseColorFactor":[1,0.38,0.08,1],"metallicFactor":0.05,"roughnessFactor":0.88},"doubleSided":true},{"pbrMetallicRoughness":{"baseColorFactor":[0.12,0.21,0.28,1],"metallicFactor":0.05,"roughnessFactor":0.88},"doubleSided":true},{"pbrMetallicRoughness":{"baseColorFactor":[0.77,0.55,0.37,1],"metallicFactor":0.05,"roughnessFactor":0.88},"doubleSided":true},{"pbrMetallicRoughness":{"baseColorFactor":[1,0.78,0.16,1],"metallicFactor":0.05,"roughnessFactor":0.88},"doubleSided":true},{"pbrMetallicRoughness":{"baseColorFactor":[0.87,0.97,0.72,1],"metallicFactor":0.05,"roughnessFactor":0.88},"doubleSided":true}],"buffers":[{"uri":"data:application/octet-stream;base64,","byteLength":10368}],"bufferViews":[{"buffer":0,"byteOffset":0,"byteLength":432},{"buffer":0,"byteOffset":432,"byteLength":432},{"buffer":0,"byteOffset":864,"byteLength":432},{"buffer":0,"byteOffset":1296,"byteLength":432},{"buffer":0,"byteOffset":1728,"byteLength":432},{"buffer":0,"byteOffset":2160,"byteLength":432},{"buffer":0,"byteOffset":2592,"byteLength":432},{"buffer":0,"byteOffset":3024,"byteLength":432},{"buffer":0,"byteOffset":3456,"byteLength":432},{"buffer":0,"byteOffset":3888,"byteLength":432},{"buffer":0,"byteOffset":4320,"byteLength":432},{"buffer":0,"byteOffset":4752,"byteLength":432},{"buffer":0,"byteOffset":5184,"byteLength":432},{"buffer":0,"byteOffset":5616,"byteLength":432},{"buffer":0,"byteOffset":6048,"byteLength":432},{"buffer":0,"byteOffset":6480,"byteLength":432},{"buffer":0,"byteOffset":6912,"byteLength":432},{"buffer":0,"byteOffset":7344,"byteLength":432},{"buffer":0,"byteOffset":7776,"byteLength":432},{"buffer":0,"byteOffset":8208,"byteLength":432},{"buffer":0,"byteOffset":8640,"byteLength":432},{"buffer":0,"byteOffset":9072,"byteLength":432},{"buffer":0,"byteOffset":9504,"byteLength":432},{"buffer":0,"byteOffset":9936,"byteLength":432}],"accessors":[{"bufferView":0,"componentType":5126,"count":36,"type":"VEC3","min":[-0.5,-0.5,-0.5],"max":[0.5,0.5,0.5]},{"bufferView":1,"componentType":5126,"count":36,"type":"VEC3","min":[-1,-1,-1],"max":[1,1,1]},{"bufferView":2,"componentType":5126,"count":36,"type":"VEC3","min":[-0.5,-0.5,-0.5],"max":[0.5,0.5,0.5]},{"bufferView":3,"componentType":5126,"count":36,"type":"VEC3","min":[-1,-1,-1],"max":[1,1,1]},{"bufferView":4,"componentType":5126,"count":36,"type":"VEC3","min":[-0.5,-0.5,-0.5],"max":[0.5,0.5,0.5]},{"bufferView":5,"componentType":5126,"count":36,"type":"VEC3","min":[-1,-1,-1],"max":[1,1,1]},{"bufferView":6,"componentType":5126,"count":36,"type":"VEC3","min":[-0.5,-0.5,-0.5],"max":[0.5,0.5,0.5]},{"bufferView":7,"componentType":5126,"count":36,"type":"VEC3","min":[-1,-1,-1],"max":[1,1,1]},{"bufferView":8,"componentType":5126,"count":36,"type":"VEC3","min":[-0.5,-0.5,-0.5],"max":[0.5,0.5,0.5]},{"bufferView":9,"componentType":5126,"count":36,"type":"VEC3","min":[-1,-1,-1],"max":[1,1,1]},{"bufferView":10,"componentType":5126,"count":36,"type":"VEC3","min":[-0.5,-0.5,-0.5],"max":[0.5,0.5,0.5]},{"bufferView":11,"componentType":5126,"count":36,"type":"VEC3","min":[-1,-1,-1],"max":[1,1,1]},{"bufferView":12,"componentType":5126,"count":36,"type":"VEC3","min":[-0.5,-0.5,-0.5],"max":[0.5,0.5,0.5]},{"bufferView":13,"componentType":5126,"count":36,"type":"VEC3","min":[-1,-1,-1],"max":[1,1,1]},{"bufferView":14,"componentType":5126,"count":36,"type":"VEC3","min":[-0.5,-0.5,-0.5],"max":[0.5,0.5,0.5]},{"bufferView":15,"componentType":5126,"count":36,"type":"VEC3","min":[-1,-1,-1],"max":[1,1,1]},{"bufferView":16,"componentType":5126,"count":36,"type":"VEC3","min":[-0.5,-0.5,-0.5],"max":[0.5,0.5,0.5]},{"bufferView":17,"componentType":5126,"count":36,"type":"VEC3","min":[-1,-1,-1],"max":[1,1,1]},{"bufferView":18,"componentType":5126,"count":36,"type":"VEC3","min":[-0.5,-0.5,-0.5],"max":[0.5,0.5,0.5]},{"bufferView":19,"componentType":5126,"count":36,"type":"VEC3","min":[-1,-1,-1],"max":[1,1,1]},{"bufferView":20,"componentType":5126,"count":36,"type":"VEC3","min":[-0.5,-0.5,-0.5],"max":[0.5,0.5,0.5]},{"bufferView":21,"componentType":5126,"count":36,"type":"VEC3","min":[-1,-1,-1],"max":[1,1,1]},{"bufferView":22,"componentType":5126,"count":36,"type":"VEC3","min":[-0.5,-0.5,-0.5],"max":[0.5,0.5,0.5]},{"bufferView":23,"componentType":5126,"count":36,"type":"VEC3","min":[-1,-1,-1],"max":[1,1,1]}]}